<?xml version="1.0" encoding="UTF-8"?>
<svg width="793.33" height="300" version="1.1" viewBox="0 0 793.33 300" xml:space="preserve" xmlns="http://www.w3.org/2000/svg" xmlns:cc="http://creativecommons.org/ns#" xmlns:dc="http://purl.org/dc/elements/1.1/" xmlns:rdf="http://www.w3.org/1999/02/22-rdf-syntax-ns#"><title>Šema FL projekta</title><metadata><rdf:RDF><cc:Work rdf:about=""><dc:format>image/svg+xml</dc:format><dc:type rdf:resource="http://purl.org/dc/dcmitype/StillImage"/><dc:title>Šema FL projekta</dc:title></cc:Work></rdf:RDF></metadata><defs><clipPath id="clipPath40"><path d="m0 619.4h2397v426.2h-2397z" clip-rule="evenodd"/></clipPath><clipPath id="clipPath62"><path d="m0 619.4h2397v426.2h-2397z" clip-rule="evenodd"/></clipPath><clipPath id="clipPath68"><path d="m6.0454 625.45h93.704v93.704h-93.704z" clip-rule="evenodd"/></clipPath><clipPath id="clipPath84"><path d="m0 619.4h2397v426.2h-2397z" clip-rule="evenodd"/></clipPath><clipPath id="clipPath96"><path d="m0 619.4h2397v426.2h-2397z" clip-rule="evenodd"/></clipPath><clipPath id="clipPath102"><path d="m6.0454 625.45h93.704v93.704h-93.704z" clip-rule="evenodd"/></clipPath><clipPath id="clipPath114"><path d="m0 619.4h2397v426.2h-2397z" clip-rule="evenodd"/></clipPath><clipPath id="clipPath120"><path d="m6.0454 625.45h93.704v93.704h-93.704z" clip-rule="evenodd"/></clipPath><clipPath id="clipPath126"><path d="m6.0451 625.44h90.681v90.681h-90.681z" clip-rule="evenodd"/></clipPath><clipPath id="clipPath136"><path d="m6.0454 625.45h90.681v90.681h-90.681z" clip-rule="evenodd"/></clipPath><clipPath id="clipPath146"><path d="m6.0454 625.45h90.681v90.681h-90.681z" clip-rule="evenodd"/></clipPath><clipPath id="clipPath152"><path d="m3.0224 622.42h102.77v102.77h-102.77z" clip-rule="evenodd"/></clipPath><clipPath id="clipPath162"><path d="m6.0454 625.45h90.681v90.681h-90.681z" clip-rule="evenodd"/></clipPath><clipPath id="clipPath168"><path d="m3.0224 622.42h102.77v102.77h-102.77z" clip-rule="evenodd"/></clipPath><clipPath id="clipPath174"><path d="m3.0224 622.42h102.77v102.77h-102.77z" clip-rule="evenodd"/></clipPath><clipPath id="clipPath192"><path d="m6.0454 625.45h90.681v90.681h-90.681z" clip-rule="evenodd"/></clipPath><clipPath id="clipPath202"><path d="m6.0454 625.45h90.681v90.681h-90.681z" clip-rule="evenodd"/></clipPath><clipPath id="clipPath208"><path d="m3.0224 622.42h102.77v102.77h-102.77z" clip-rule="evenodd"/></clipPath><clipPath id="clipPath218"><path d="m6.0454 625.45h90.681v90.681h-90.681z" clip-rule="evenodd"/></clipPath><clipPath id="clipPath224"><path d="m3.0224 622.42h102.77v102.77h-102.77z" clip-rule="evenodd"/></clipPath><clipPath id="clipPath230"><path d="m3.0224 622.42h102.77v102.77h-102.77z" clip-rule="evenodd"/></clipPath><clipPath id="clipPath244"><path d="m6.0454 625.45h90.681v90.681h-90.681z" clip-rule="evenodd"/></clipPath><clipPath id="clipPath254"><path d="m6.0454 625.45h90.681v90.681h-90.681z" clip-rule="evenodd"/></clipPath><clipPath id="clipPath260"><path d="m3.0224 622.42h102.77v102.77h-102.77z" clip-rule="evenodd"/></clipPath><clipPath id="clipPath274"><path d="m6.0454 625.45h90.681v90.681h-90.681z" clip-rule="evenodd"/></clipPath><clipPath id="clipPath288"><path d="m0 619.4h2397v426.2h-2397z" clip-rule="evenodd"/></clipPath><clipPath id="clipPath298"><path d="m0 619.4h2397v426.2h-2397z" clip-rule="evenodd"/></clipPath><clipPath id="clipPath304"><path d="m6.0454 625.45h93.704v93.704h-93.704z" clip-rule="evenodd"/></clipPath><clipPath id="clipPath320"><path d="m0 619.4h2397v426.2h-2397z" clip-rule="evenodd"/></clipPath><clipPath id="clipPath334"><path d="m0 619.4h2397v426.2h-2397z" clip-rule="evenodd"/></clipPath><clipPath id="clipPath340"><path d="m6.0454 625.45h90.681v90.681h-90.681z" clip-rule="evenodd"/></clipPath><clipPath id="clipPath354"><path d="m0 619.4h2397v426.2h-2397z" clip-rule="evenodd"/></clipPath><clipPath id="clipPath382"><path d="m0 619.4h2397v426.2h-2397z" clip-rule="evenodd"/></clipPath><clipPath id="clipPath388"><path d="m1744.1 773.56h350.63v160.2h-350.63z" clip-rule="evenodd"/></clipPath><clipPath id="clipPath404"><path d="m0 619.4h2397v426.2h-2397z" clip-rule="evenodd"/></clipPath><clipPath id="clipPath416"><path d="m0 619.4h2397v426.2h-2397z" clip-rule="evenodd"/></clipPath><clipPath id="clipPath422"><path d="m1744.1 773.56h350.63v160.2h-350.63z" clip-rule="evenodd"/></clipPath><clipPath id="clipPath434"><path d="m0 619.4h2397v426.2h-2397z" clip-rule="evenodd"/></clipPath><clipPath id="clipPath440"><path d="m1744.1 773.56h350.63v160.2h-350.63z" clip-rule="evenodd"/></clipPath><clipPath id="clipPath446"><path d="m1744.1 773.56h347.61v157.18h-347.61z" clip-rule="evenodd"/></clipPath><clipPath id="clipPath456"><path d="m1744.1 773.56h347.61v157.18h-347.61z" clip-rule="evenodd"/></clipPath><clipPath id="clipPath466"><path d="m1744.1 773.56h347.61v157.18h-347.61z" clip-rule="evenodd"/></clipPath><clipPath id="clipPath472"><path d="m1786.4 797.74h269.02v111.84h-269.02z" clip-rule="evenodd"/></clipPath><clipPath id="clipPath482"><path d="m1744.1 773.56h347.61v157.18h-347.61z" clip-rule="evenodd"/></clipPath><clipPath id="clipPath488"><path d="m1786.4 797.74h269.02v111.84h-269.02z" clip-rule="evenodd"/></clipPath><clipPath id="clipPath494"><path d="m1786.4 797.74h269.02v111.84h-269.02z" clip-rule="evenodd"/></clipPath><clipPath id="clipPath504"><path d="m1744.1 773.56h347.61v157.18h-347.61z" clip-rule="evenodd"/></clipPath><clipPath id="clipPath510"><path d="m1786.4 797.74h269.02v111.84h-269.02z" clip-rule="evenodd"/></clipPath><clipPath id="clipPath516"><path d="m1786.4 797.74h269.02v111.84h-269.02z" clip-rule="evenodd"/></clipPath><clipPath id="clipPath522"><path d="m1789.4 802.27h256.93v99.749h-256.93z" clip-rule="evenodd"/></clipPath><clipPath id="clipPath628"><path d="m1744.1 773.56h347.61v157.18h-347.61z" clip-rule="evenodd"/></clipPath><clipPath id="clipPath638"><path d="m1744.1 773.56h347.61v157.18h-347.61z" clip-rule="evenodd"/></clipPath><clipPath id="clipPath644"><path d="m1786.4 797.74h269.02v111.84h-269.02z" clip-rule="evenodd"/></clipPath><clipPath id="clipPath654"><path d="m1744.1 773.56h347.61v157.18h-347.61z" clip-rule="evenodd"/></clipPath><clipPath id="clipPath660"><path d="m1786.4 797.74h269.02v111.84h-269.02z" clip-rule="evenodd"/></clipPath><clipPath id="clipPath666"><path d="m1786.4 797.74h269.02v111.84h-269.02z" clip-rule="evenodd"/></clipPath><clipPath id="clipPath680"><path d="m1744.1 773.56h347.61v157.18h-347.61z" clip-rule="evenodd"/></clipPath><clipPath id="clipPath690"><path d="m1744.1 773.56h347.61v157.18h-347.61z" clip-rule="evenodd"/></clipPath><clipPath id="clipPath696"><path d="m1786.4 797.74h269.02v111.84h-269.02z" clip-rule="evenodd"/></clipPath><clipPath id="clipPath706"><path d="m1744.1 773.56h347.61v157.18h-347.61z" clip-rule="evenodd"/></clipPath><clipPath id="clipPath712"><path d="m1786.4 797.74h269.02v111.84h-269.02z" clip-rule="evenodd"/></clipPath><clipPath id="clipPath718"><path d="m1786.4 797.74h269.02v111.84h-269.02z" clip-rule="evenodd"/></clipPath><clipPath id="clipPath732"><path d="m1744.1 773.56h347.61v157.18h-347.61z" clip-rule="evenodd"/></clipPath><clipPath id="clipPath742"><path d="m1744.1 773.56h347.61v157.18h-347.61z" clip-rule="evenodd"/></clipPath><clipPath id="clipPath748"><path d="m1786.4 797.74h269.02v111.84h-269.02z" clip-rule="evenodd"/></clipPath><clipPath id="clipPath762"><path d="m1744.1 773.56h347.61v157.18h-347.61z" clip-rule="evenodd"/></clipPath><clipPath id="clipPath776"><path d="m0 619.4h2397v426.2h-2397z" clip-rule="evenodd"/></clipPath><clipPath id="clipPath786"><path d="m0 619.4h2397v426.2h-2397z" clip-rule="evenodd"/></clipPath><clipPath id="clipPath792"><path d="m1744.1 773.56h350.63v160.2h-350.63z" clip-rule="evenodd"/></clipPath><clipPath id="clipPath808"><path d="m0 619.4h2397v426.2h-2397z" clip-rule="evenodd"/></clipPath><clipPath id="clipPath822"><path d="m0 619.4h2397v426.2h-2397z" clip-rule="evenodd"/></clipPath><clipPath id="clipPath828"><path d="m1744.1 773.56h347.61v157.18h-347.61z" clip-rule="evenodd"/></clipPath><clipPath id="clipPath842"><path d="m0 619.4h2397v426.2h-2397z" clip-rule="evenodd"/></clipPath><clipPath id="clipPath870"><path d="m0 619.4h2397v426.2h-2397z" clip-rule="evenodd"/></clipPath><clipPath id="clipPath876"><path d="m2197.5 791.69h123.93v123.93h-123.93z" clip-rule="evenodd"/></clipPath><clipPath id="clipPath892"><path d="m0 619.4h2397v426.2h-2397z" clip-rule="evenodd"/></clipPath><clipPath id="clipPath904"><path d="m0 619.4h2397v426.2h-2397z" clip-rule="evenodd"/></clipPath><clipPath id="clipPath910"><path d="m2197.5 791.69h123.93v123.93h-123.93z" clip-rule="evenodd"/></clipPath><clipPath id="clipPath922"><path d="m0 619.4h2397v426.2h-2397z" clip-rule="evenodd"/></clipPath><clipPath id="clipPath928"><path d="m2197.5 791.69h123.93v123.93h-123.93z" clip-rule="evenodd"/></clipPath><clipPath id="clipPath934"><path d="m2197.5 791.69h120.91v120.91h-120.91z" clip-rule="evenodd"/></clipPath><clipPath id="clipPath944"><path d="m2197.5 791.69h120.91v120.91h-120.91z" clip-rule="evenodd"/></clipPath><clipPath id="clipPath954"><path d="m2197.5 791.69h120.91v120.91h-120.91z" clip-rule="evenodd"/></clipPath><clipPath id="clipPath960"><path d="m2194.5 788.67h133v133h-133z" clip-rule="evenodd"/></clipPath><clipPath id="clipPath970"><path d="m2197.5 791.69h120.91v120.91h-120.91z" clip-rule="evenodd"/></clipPath><clipPath id="clipPath976"><path d="m2194.5 788.67h133v133h-133z" clip-rule="evenodd"/></clipPath><clipPath id="clipPath982"><path d="m2194.5 788.67h133v133h-133z" clip-rule="evenodd"/></clipPath><clipPath id="clipPath1032"><path d="m2197.5 791.69h120.91v120.91h-120.91z" clip-rule="evenodd"/></clipPath><clipPath id="clipPath1042"><path d="m2197.5 791.69h120.91v120.91h-120.91z" clip-rule="evenodd"/></clipPath><clipPath id="clipPath1048"><path d="m2194.5 788.67h133v133h-133z" clip-rule="evenodd"/></clipPath><clipPath id="clipPath1058"><path d="m2197.5 791.69h120.91v120.91h-120.91z" clip-rule="evenodd"/></clipPath><clipPath id="clipPath1064"><path d="m2194.5 788.67h133v133h-133z" clip-rule="evenodd"/></clipPath><clipPath id="clipPath1070"><path d="m2194.5 788.67h133v133h-133z" clip-rule="evenodd"/></clipPath><clipPath id="clipPath1084"><path d="m2197.5 791.69h120.91v120.91h-120.91z" clip-rule="evenodd"/></clipPath><clipPath id="clipPath1094"><path d="m2197.5 791.69h120.91v120.91h-120.91z" clip-rule="evenodd"/></clipPath><clipPath id="clipPath1100"><path d="m2194.5 788.67h133v133h-133z" clip-rule="evenodd"/></clipPath><clipPath id="clipPath1114"><path d="m2197.5 791.69h120.91v120.91h-120.91z" clip-rule="evenodd"/></clipPath><clipPath id="clipPath1128"><path d="m0 619.4h2397v426.2h-2397z" clip-rule="evenodd"/></clipPath><clipPath id="clipPath1138"><path d="m0 619.4h2397v426.2h-2397z" clip-rule="evenodd"/></clipPath><clipPath id="clipPath1144"><path d="m2197.5 791.69h123.93v123.93h-123.93z" clip-rule="evenodd"/></clipPath><clipPath id="clipPath1160"><path d="m0 619.4h2397v426.2h-2397z" clip-rule="evenodd"/></clipPath><clipPath id="clipPath1174"><path d="m0 619.4h2397v426.2h-2397z" clip-rule="evenodd"/></clipPath><clipPath id="clipPath1180"><path d="m2197.5 791.69h120.91v120.91h-120.91z" clip-rule="evenodd"/></clipPath><clipPath id="clipPath1194"><path d="m0 619.4h2397v426.2h-2397z" clip-rule="evenodd"/></clipPath><clipPath id="clipPath1222"><path d="m0 619.4h2397v426.2h-2397z" clip-rule="evenodd"/></clipPath><clipPath id="clipPath1228"><path d="m1381.4 806.81h93.704v93.704h-93.704z" clip-rule="evenodd"/></clipPath><clipPath id="clipPath1244"><path d="m0 619.4h2397v426.2h-2397z" clip-rule="evenodd"/></clipPath><clipPath id="clipPath1256"><path d="m0 619.4h2397v426.2h-2397z" clip-rule="evenodd"/></clipPath><clipPath id="clipPath1262"><path d="m1381.4 806.81h93.704v93.704h-93.704z" clip-rule="evenodd"/></clipPath><clipPath id="clipPath1274"><path d="m0 619.4h2397v426.2h-2397z" clip-rule="evenodd"/></clipPath><clipPath id="clipPath1280"><path d="m1381.4 806.81h93.704v93.704h-93.704z" clip-rule="evenodd"/></clipPath><clipPath id="clipPath1286"><path d="m1381.4 806.81h90.681v90.681h-90.681z" clip-rule="evenodd"/></clipPath><clipPath id="clipPath1296"><path d="m1381.4 806.81h90.681v90.681h-90.681z" clip-rule="evenodd"/></clipPath><clipPath id="clipPath1306"><path d="m1381.4 806.81h90.681v90.681h-90.681z" clip-rule="evenodd"/></clipPath><clipPath id="clipPath1312"><path d="m1378.4 803.78h102.77v102.77h-102.77z" clip-rule="evenodd"/></clipPath><clipPath id="clipPath1322"><path d="m1381.4 806.81h90.681v90.681h-90.681z" clip-rule="evenodd"/></clipPath><clipPath id="clipPath1328"><path d="m1378.4 803.78h102.77v102.77h-102.77z" clip-rule="evenodd"/></clipPath><clipPath id="clipPath1334"><path d="m1378.4 803.78h102.77v102.77h-102.77z" clip-rule="evenodd"/></clipPath><clipPath id="clipPath1348"><path d="m1381.4 806.81h90.681v90.681h-90.681z" clip-rule="evenodd"/></clipPath><clipPath id="clipPath1354"><path d="m1378.4 803.78h102.77v102.77h-102.77z" clip-rule="evenodd"/></clipPath><clipPath id="clipPath1360"><path d="m1378.4 803.78h102.77v102.77h-102.77z" clip-rule="evenodd"/></clipPath><clipPath id="clipPath1366"><path d="m1400 812.32h23.124v79.648h-23.124z" clip-rule="evenodd"/></clipPath><clipPath id="clipPath1392"><path d="m1381.4 806.81h90.681v90.681h-90.681z" clip-rule="evenodd"/></clipPath><clipPath id="clipPath1402"><path d="m1381.4 806.81h90.681v90.681h-90.681z" clip-rule="evenodd"/></clipPath><clipPath id="clipPath1408"><path d="m1378.4 803.78h102.77v102.77h-102.77z" clip-rule="evenodd"/></clipPath><clipPath id="clipPath1418"><path d="m1381.4 806.81h90.681v90.681h-90.681z" clip-rule="evenodd"/></clipPath><clipPath id="clipPath1424"><path d="m1378.4 803.78h102.77v102.77h-102.77z" clip-rule="evenodd"/></clipPath><clipPath id="clipPath1430"><path d="m1378.4 803.78h102.77v102.77h-102.77z" clip-rule="evenodd"/></clipPath><clipPath id="clipPath1444"><path d="m1381.4 806.81h90.681v90.681h-90.681z" clip-rule="evenodd"/></clipPath><clipPath id="clipPath1454"><path d="m1381.4 806.81h90.681v90.681h-90.681z" clip-rule="evenodd"/></clipPath><clipPath id="clipPath1460"><path d="m1378.4 803.78h102.77v102.77h-102.77z" clip-rule="evenodd"/></clipPath><clipPath id="clipPath1470"><path d="m1381.4 806.81h90.681v90.681h-90.681z" clip-rule="evenodd"/></clipPath><clipPath id="clipPath1476"><path d="m1378.4 803.78h102.77v102.77h-102.77z" clip-rule="evenodd"/></clipPath><clipPath id="clipPath1482"><path d="m1378.4 803.78h102.77v102.77h-102.77z" clip-rule="evenodd"/></clipPath><clipPath id="clipPath1496"><path d="m1381.4 806.81h90.681v90.681h-90.681z" clip-rule="evenodd"/></clipPath><clipPath id="clipPath1506"><path d="m1381.4 806.81h90.681v90.681h-90.681z" clip-rule="evenodd"/></clipPath><clipPath id="clipPath1512"><path d="m1378.4 803.78h102.77v102.77h-102.77z" clip-rule="evenodd"/></clipPath><clipPath id="clipPath1526"><path d="m1381.4 806.81h90.681v90.681h-90.681z" clip-rule="evenodd"/></clipPath><clipPath id="clipPath1540"><path d="m0 619.4h2397v426.2h-2397z" clip-rule="evenodd"/></clipPath><clipPath id="clipPath1550"><path d="m0 619.4h2397v426.2h-2397z" clip-rule="evenodd"/></clipPath><clipPath id="clipPath1556"><path d="m1381.4 806.81h93.704v93.704h-93.704z" clip-rule="evenodd"/></clipPath><clipPath id="clipPath1572"><path d="m0 619.4h2397v426.2h-2397z" clip-rule="evenodd"/></clipPath><clipPath id="clipPath1586"><path d="m0 619.4h2397v426.2h-2397z" clip-rule="evenodd"/></clipPath><clipPath id="clipPath1592"><path d="m1381.4 806.81h90.681v90.681h-90.681z" clip-rule="evenodd"/></clipPath><clipPath id="clipPath1606"><path d="m0 619.4h2397v426.2h-2397z" clip-rule="evenodd"/></clipPath><clipPath id="clipPath1634"><path d="m0 619.4h2397v426.2h-2397z" clip-rule="evenodd"/></clipPath><clipPath id="clipPath1640"><path d="m1124.4 767.51h211.59v169.27h-211.59z" clip-rule="evenodd"/></clipPath><clipPath id="clipPath1698"><path d="m0 619.4h2397v426.2h-2397z" clip-rule="evenodd"/></clipPath><clipPath id="clipPath1724"><path d="m0 619.4h2397v426.2h-2397z" clip-rule="evenodd"/></clipPath><clipPath id="clipPath1730"><path d="m217.63 640.56h60.454v60.454h-60.454z" clip-rule="evenodd"/></clipPath><clipPath id="clipPath1760"><path d="m0 619.4h2397v426.2h-2397z" clip-rule="evenodd"/></clipPath><clipPath id="clipPath1788"><path d="m0 619.4h2397v426.2h-2397z" clip-rule="evenodd"/></clipPath><clipPath id="clipPath1794"><path d="m399 852.15h93.704v93.704h-93.704z" clip-rule="evenodd"/></clipPath><clipPath id="clipPath1810"><path d="m0 619.4h2397v426.2h-2397z" clip-rule="evenodd"/></clipPath><clipPath id="clipPath1822"><path d="m0 619.4h2397v426.2h-2397z" clip-rule="evenodd"/></clipPath><clipPath id="clipPath1828"><path d="m399 852.15h93.704v93.704h-93.704z" clip-rule="evenodd"/></clipPath><clipPath id="clipPath1840"><path d="m0 619.4h2397v426.2h-2397z" clip-rule="evenodd"/></clipPath><clipPath id="clipPath1846"><path d="m399 852.15h93.704v93.704h-93.704z" clip-rule="evenodd"/></clipPath><clipPath id="clipPath1852"><path d="m399 852.15h90.681v90.681h-90.681z" clip-rule="evenodd"/></clipPath><clipPath id="clipPath1862"><path d="m399 852.15h90.681v90.681h-90.681z" clip-rule="evenodd"/></clipPath><clipPath id="clipPath1872"><path d="m399 852.15h90.681v90.681h-90.681z" clip-rule="evenodd"/></clipPath><clipPath id="clipPath1878"><path d="m420.15 861.22h51.386v78.59h-51.386z" clip-rule="evenodd"/></clipPath><clipPath id="clipPath1888"><path d="m399 852.15h90.681v90.681h-90.681z" clip-rule="evenodd"/></clipPath><clipPath id="clipPath1894"><path d="m420.15 861.22h51.386v78.59h-51.386z" clip-rule="evenodd"/></clipPath><clipPath id="clipPath1900"><path d="m420.15 861.22h51.386v78.59h-51.386z" clip-rule="evenodd"/></clipPath><clipPath id="clipPath1910"><path d="m399 852.15h90.681v90.681h-90.681z" clip-rule="evenodd"/></clipPath><clipPath id="clipPath1916"><path d="m420.15 861.22h51.386v78.59h-51.386z" clip-rule="evenodd"/></clipPath><clipPath id="clipPath1922"><path d="m420.15 861.22h51.386v78.59h-51.386z" clip-rule="evenodd"/></clipPath><clipPath id="clipPath1928"><path d="m424.99 865.45h38.086v65.593h-38.086z" clip-rule="evenodd"/></clipPath><clipPath id="clipPath1962"><path d="m399 852.15h90.681v90.681h-90.681z" clip-rule="evenodd"/></clipPath><clipPath id="clipPath1972"><path d="m399 852.15h90.681v90.681h-90.681z" clip-rule="evenodd"/></clipPath><clipPath id="clipPath1978"><path d="m420.15 861.22h51.386v78.59h-51.386z" clip-rule="evenodd"/></clipPath><clipPath id="clipPath1988"><path d="m399 852.15h90.681v90.681h-90.681z" clip-rule="evenodd"/></clipPath><clipPath id="clipPath1994"><path d="m420.15 861.22h51.386v78.59h-51.386z" clip-rule="evenodd"/></clipPath><clipPath id="clipPath2000"><path d="m420.15 861.22h51.386v78.59h-51.386z" clip-rule="evenodd"/></clipPath><clipPath id="clipPath2014"><path d="m399 852.15h90.681v90.681h-90.681z" clip-rule="evenodd"/></clipPath><clipPath id="clipPath2024"><path d="m399 852.15h90.681v90.681h-90.681z" clip-rule="evenodd"/></clipPath><clipPath id="clipPath2030"><path d="m420.15 861.22h51.386v78.59h-51.386z" clip-rule="evenodd"/></clipPath><clipPath id="clipPath2040"><path d="m399 852.15h90.681v90.681h-90.681z" clip-rule="evenodd"/></clipPath><clipPath id="clipPath2046"><path d="m420.15 861.22h51.386v78.59h-51.386z" clip-rule="evenodd"/></clipPath><clipPath id="clipPath2052"><path d="m420.15 861.22h51.386v78.59h-51.386z" clip-rule="evenodd"/></clipPath><clipPath id="clipPath2066"><path d="m399 852.15h90.681v90.681h-90.681z" clip-rule="evenodd"/></clipPath><clipPath id="clipPath2076"><path d="m399 852.15h90.681v90.681h-90.681z" clip-rule="evenodd"/></clipPath><clipPath id="clipPath2082"><path d="m420.15 861.22h51.386v78.59h-51.386z" clip-rule="evenodd"/></clipPath><clipPath id="clipPath2096"><path d="m399 852.15h90.681v90.681h-90.681z" clip-rule="evenodd"/></clipPath><clipPath id="clipPath2110"><path d="m0 619.4h2397v426.2h-2397z" clip-rule="evenodd"/></clipPath><clipPath id="clipPath2120"><path d="m0 619.4h2397v426.2h-2397z" clip-rule="evenodd"/></clipPath><clipPath id="clipPath2126"><path d="m399 852.15h93.704v93.704h-93.704z" clip-rule="evenodd"/></clipPath><clipPath id="clipPath2142"><path d="m0 619.4h2397v426.2h-2397z" clip-rule="evenodd"/></clipPath><clipPath id="clipPath2156"><path d="m0 619.4h2397v426.2h-2397z" clip-rule="evenodd"/></clipPath><clipPath id="clipPath2162"><path d="m399 852.15h90.681v90.681h-90.681z" clip-rule="evenodd"/></clipPath><clipPath id="clipPath2176"><path d="m0 619.4h2397v426.2h-2397z" clip-rule="evenodd"/></clipPath><clipPath id="clipPath2204"><path d="m0 619.4h2397v426.2h-2397z" clip-rule="evenodd"/></clipPath><clipPath id="clipPath2210"><path d="m988.42 764.49h15.113v175.32h-15.113z" clip-rule="evenodd"/></clipPath><clipPath id="clipPath2228"><path d="m0 619.4h2397v426.2h-2397z" clip-rule="evenodd"/></clipPath><clipPath id="clipPath2256"><path d="m0 619.4h2397v426.2h-2397z" clip-rule="evenodd"/></clipPath><clipPath id="clipPath2262"><path d="m625.7 852.15h93.704v93.704h-93.704z" clip-rule="evenodd"/></clipPath><clipPath id="clipPath2278"><path d="m0 619.4h2397v426.2h-2397z" clip-rule="evenodd"/></clipPath><clipPath id="clipPath2290"><path d="m0 619.4h2397v426.2h-2397z" clip-rule="evenodd"/></clipPath><clipPath id="clipPath2296"><path d="m625.7 852.15h93.704v93.704h-93.704z" clip-rule="evenodd"/></clipPath><clipPath id="clipPath2308"><path d="m0 619.4h2397v426.2h-2397z" clip-rule="evenodd"/></clipPath><clipPath id="clipPath2314"><path d="m625.7 852.15h93.704v93.704h-93.704z" clip-rule="evenodd"/></clipPath><clipPath id="clipPath2320"><path d="m625.7 852.15h90.681v90.681h-90.681z" clip-rule="evenodd"/></clipPath><clipPath id="clipPath2330"><path d="m625.7 852.15h90.681v90.681h-90.681z" clip-rule="evenodd"/></clipPath><clipPath id="clipPath2340"><path d="m625.7 852.15h90.681v90.681h-90.681z" clip-rule="evenodd"/></clipPath><clipPath id="clipPath2346"><path d="m622.68 849.12h102.77v102.77h-102.77z" clip-rule="evenodd"/></clipPath><clipPath id="clipPath2356"><path d="m625.7 852.15h90.681v90.681h-90.681z" clip-rule="evenodd"/></clipPath><clipPath id="clipPath2362"><path d="m622.68 849.12h102.77v102.77h-102.77z" clip-rule="evenodd"/></clipPath><clipPath id="clipPath2368"><path d="m622.68 849.12h102.77v102.77h-102.77z" clip-rule="evenodd"/></clipPath><clipPath id="clipPath2394"><path d="m625.7 852.15h90.681v90.681h-90.681z" clip-rule="evenodd"/></clipPath><clipPath id="clipPath2404"><path d="m625.7 852.15h90.681v90.681h-90.681z" clip-rule="evenodd"/></clipPath><clipPath id="clipPath2410"><path d="m622.68 849.12h102.77v102.77h-102.77z" clip-rule="evenodd"/></clipPath><clipPath id="clipPath2420"><path d="m625.7 852.15h90.681v90.681h-90.681z" clip-rule="evenodd"/></clipPath><clipPath id="clipPath2426"><path d="m622.68 849.12h102.77v102.77h-102.77z" clip-rule="evenodd"/></clipPath><clipPath id="clipPath2432"><path d="m622.68 849.12h102.77v102.77h-102.77z" clip-rule="evenodd"/></clipPath><clipPath id="clipPath2446"><path d="m625.7 852.15h90.681v90.681h-90.681z" clip-rule="evenodd"/></clipPath><clipPath id="clipPath2456"><path d="m625.7 852.15h90.681v90.681h-90.681z" clip-rule="evenodd"/></clipPath><clipPath id="clipPath2462"><path d="m622.68 849.12h102.77v102.77h-102.77z" clip-rule="evenodd"/></clipPath><clipPath id="clipPath2476"><path d="m625.7 852.15h90.681v90.681h-90.681z" clip-rule="evenodd"/></clipPath><clipPath id="clipPath2490"><path d="m0 619.4h2397v426.2h-2397z" clip-rule="evenodd"/></clipPath><clipPath id="clipPath2500"><path d="m0 619.4h2397v426.2h-2397z" clip-rule="evenodd"/></clipPath><clipPath id="clipPath2506"><path d="m625.7 852.15h93.704v93.704h-93.704z" clip-rule="evenodd"/></clipPath><clipPath id="clipPath2522"><path d="m0 619.4h2397v426.2h-2397z" clip-rule="evenodd"/></clipPath><clipPath id="clipPath2536"><path d="m0 619.4h2397v426.2h-2397z" clip-rule="evenodd"/></clipPath><clipPath id="clipPath2542"><path d="m625.7 852.15h90.681v90.681h-90.681z" clip-rule="evenodd"/></clipPath><clipPath id="clipPath2556"><path d="m0 619.4h2397v426.2h-2397z" clip-rule="evenodd"/></clipPath><clipPath id="clipPath2710"><path d="m0 0h2397v1665h-2397z" clip-rule="evenodd"/></clipPath><clipPath id="clipPath2724"><path d="m0 0h4.1667v4.1667h-4.1667z" clip-rule="evenodd"/></clipPath></defs><g transform="matrix(1.3333 0 0 -1.3333 0 560)"><g transform="matrix(.24 0 0 -.24 3.657 479.4)"><g transform="translate(31.628 -104.62)"/><g transform="translate(31.628 -104.62)"><g clip-path="url(#clipPath62)"><g clip-path="url(#clipPath68)"/></g></g><g transform="translate(31.628 -104.62)"/><g transform="translate(31.628 -104.62)"><g clip-path="url(#clipPath84)"/></g><g transform="translate(31.628 -104.62)"><g clip-path="url(#clipPath96)"><g clip-path="url(#clipPath102)"/></g></g><g transform="translate(31.628 -104.62)"><g clip-path="url(#clipPath114)"><g clip-path="url(#clipPath120)"><g clip-path="url(#clipPath126)"/></g></g></g><g transform="translate(31.628 -104.62)"><g clip-path="url(#clipPath136)"/></g><g transform="translate(31.628 -104.62)"><g clip-path="url(#clipPath146)"><g clip-path="url(#clipPath152)"/></g></g><g transform="translate(31.628 -104.62)"/><g transform="translate(31.628 -104.62)"><g clip-path="url(#clipPath192)"/></g><g transform="translate(31.628 -104.62)"><g clip-path="url(#clipPath202)"><g clip-path="url(#clipPath208)"/></g></g><g transform="translate(31.628 -104.62)"><g clip-path="url(#clipPath218)"><g clip-path="url(#clipPath224)"><g clip-path="url(#clipPath230)"/></g></g></g><g transform="translate(31.628 -104.62)"/><g transform="translate(31.628 -104.62)"><g clip-path="url(#clipPath244)"/></g><g transform="translate(31.628 -104.62)"><g clip-path="url(#clipPath254)"><g clip-path="url(#clipPath260)"/></g></g><g transform="translate(31.628 -104.62)"/><g transform="translate(31.628 -104.62)"><g clip-path="url(#clipPath274)"/></g><g transform="translate(31.628 -104.62)"/><g transform="translate(31.628 -104.62)"><g clip-path="url(#clipPath288)"/></g><g transform="translate(31.628 -104.62)"><g clip-path="url(#clipPath298)"><g clip-path="url(#clipPath304)"/></g></g><g transform="translate(31.628 -104.62)"/><g transform="translate(31.628 -104.62)"><g clip-path="url(#clipPath320)"/></g><g transform="translate(31.628 -104.62)"><g clip-path="url(#clipPath334)"><g clip-path="url(#clipPath340)"/></g></g><g transform="translate(31.628 -104.62)"/><g transform="translate(31.628 -104.62)"><g clip-path="url(#clipPath382)"><g clip-path="url(#clipPath388)"/></g></g><g transform="translate(31.628 -104.62)"/><g transform="translate(31.628 -104.62)"><g clip-path="url(#clipPath404)"/></g><g transform="translate(31.628 -104.62)"><g clip-path="url(#clipPath416)"><g clip-path="url(#clipPath422)"/></g></g><g transform="translate(31.628 -104.62)"><g clip-path="url(#clipPath434)"><g clip-path="url(#clipPath440)"><g clip-path="url(#clipPath446)"/></g></g></g><g transform="translate(31.628 -104.62)"><g clip-path="url(#clipPath456)"/></g><g transform="translate(31.628 -104.62)"><g clip-path="url(#clipPath466)"><g clip-path="url(#clipPath472)"/></g></g><g transform="translate(31.628 -104.62)"><g clip-path="url(#clipPath482)"><g clip-path="url(#clipPath488)"><g clip-path="url(#clipPath494)"/></g></g></g><g transform="translate(31.628 -104.62)"/><g transform="translate(31.628 -104.62)"><g clip-path="url(#clipPath628)"/></g><g transform="translate(31.628 -104.62)"><g clip-path="url(#clipPath638)"><g clip-path="url(#clipPath644)"/></g></g><g transform="translate(31.628 -104.62)"><g clip-path="url(#clipPath654)"><g clip-path="url(#clipPath660)"><g clip-path="url(#clipPath666)"/></g></g></g><g transform="translate(31.628 -104.62)"/><g transform="translate(31.628 -104.62)"><g clip-path="url(#clipPath680)"/></g><g transform="translate(31.628 -104.62)"><g clip-path="url(#clipPath690)"><g clip-path="url(#clipPath696)"/></g></g><g transform="translate(31.628 -104.62)"><g clip-path="url(#clipPath706)"><g clip-path="url(#clipPath712)"><g clip-path="url(#clipPath718)"/></g></g></g><g transform="translate(31.628 -104.62)"/><g transform="translate(31.628 -104.62)"><g clip-path="url(#clipPath732)"/></g><g transform="translate(31.628 -104.62)"><g clip-path="url(#clipPath742)"><g clip-path="url(#clipPath748)"/></g></g><g transform="translate(31.628 -104.62)"/><g transform="translate(31.628 -104.62)"><g clip-path="url(#clipPath762)"/></g><g transform="translate(31.628 -104.62)"/><g transform="translate(31.628 -104.62)"><g clip-path="url(#clipPath776)"/></g><g transform="translate(31.628 -104.62)"><g clip-path="url(#clipPath786)"><g clip-path="url(#clipPath792)"/></g></g><g transform="translate(31.628 -104.62)"/><g transform="translate(31.628 -104.62)"><g clip-path="url(#clipPath808)"/></g><g transform="translate(31.628 -104.62)"><g clip-path="url(#clipPath822)"><g clip-path="url(#clipPath828)"/></g></g><g transform="translate(31.628 -104.62)"/><g transform="translate(31.628 -104.62)"><g clip-path="url(#clipPath870)"><g clip-path="url(#clipPath876)"/></g></g><g transform="translate(31.628 -104.62)"/><g transform="translate(31.628 -104.62)"><g clip-path="url(#clipPath892)"/></g><g transform="translate(31.628 -104.62)"><g clip-path="url(#clipPath904)"><g clip-path="url(#clipPath910)"/></g></g><g transform="translate(31.628 -104.62)"><g clip-path="url(#clipPath922)"><g clip-path="url(#clipPath928)"><g clip-path="url(#clipPath934)"/></g></g></g><g transform="translate(31.628 -104.62)"><g clip-path="url(#clipPath944)"/></g><g transform="translate(31.628 -104.62)"><g clip-path="url(#clipPath954)"><g clip-path="url(#clipPath960)"/></g></g><g transform="translate(31.628 -104.62)"/><g transform="translate(31.628 -104.62)"><g clip-path="url(#clipPath1032)"/></g><g transform="translate(31.628 -104.62)"><g clip-path="url(#clipPath1042)"><g clip-path="url(#clipPath1048)"/></g></g><g transform="translate(31.628 -104.62)"><g clip-path="url(#clipPath1058)"><g clip-path="url(#clipPath1064)"><g clip-path="url(#clipPath1070)"/></g></g></g><g transform="translate(31.628 -104.62)"/><g transform="translate(31.628 -104.62)"><g clip-path="url(#clipPath1084)"/></g><g transform="translate(31.628 -104.62)"><g clip-path="url(#clipPath1094)"><g clip-path="url(#clipPath1100)"/></g></g><g transform="translate(31.628 -104.62)"/><g transform="translate(31.628 -104.62)"><g clip-path="url(#clipPath1114)"/></g><g transform="translate(31.628 -104.62)"/><g transform="translate(31.628 -104.62)"><g clip-path="url(#clipPath1128)"/></g><g transform="translate(31.628 -104.62)"><g clip-path="url(#clipPath1138)"><g clip-path="url(#clipPath1144)"/></g></g><g transform="translate(31.628 -104.62)"/><g transform="translate(31.628 -104.62)"><g clip-path="url(#clipPath1160)"/></g><g transform="translate(31.628 -104.62)"><g clip-path="url(#clipPath1174)"><g clip-path="url(#clipPath1180)"/></g></g><g transform="translate(31.628 -104.62)"/><g transform="translate(31.628 -104.62)"><g clip-path="url(#clipPath1222)"><g clip-path="url(#clipPath1228)"/></g></g><g transform="translate(31.628 -104.62)"/><g transform="translate(31.628 -104.62)"><g clip-path="url(#clipPath1244)"/></g><g transform="translate(31.628 -104.62)"><g clip-path="url(#clipPath1256)"><g clip-path="url(#clipPath1262)"/></g></g><g transform="translate(31.628 -104.62)"><g clip-path="url(#clipPath1274)"><g clip-path="url(#clipPath1280)"><g clip-path="url(#clipPath1286)"/></g></g></g><g transform="translate(31.628 -104.62)"><g clip-path="url(#clipPath1296)"/></g><g transform="translate(31.628 -104.62)"><g clip-path="url(#clipPath1306)"><g clip-path="url(#clipPath1312)"/></g></g><g transform="translate(31.628 -104.62)"/><g transform="translate(31.628 -104.62)"><g clip-path="url(#clipPath1392)"/></g><g transform="translate(31.628 -104.62)"><g clip-path="url(#clipPath1402)"><g clip-path="url(#clipPath1408)"/></g></g><g transform="translate(31.628 -104.62)"><g clip-path="url(#clipPath1418)"><g clip-path="url(#clipPath1424)"><g clip-path="url(#clipPath1430)"/></g></g></g><g transform="translate(31.628 -104.62)"/><g transform="translate(31.628 -104.62)"><g clip-path="url(#clipPath1444)"/></g><g transform="translate(31.628 -104.62)"><g clip-path="url(#clipPath1454)"><g clip-path="url(#clipPath1460)"/></g></g><g transform="translate(31.628 -104.62)"><g clip-path="url(#clipPath1470)"><g clip-path="url(#clipPath1476)"><g clip-path="url(#clipPath1482)"/></g></g></g><g transform="translate(31.628 -104.62)"/><g transform="translate(31.628 -104.62)"><g clip-path="url(#clipPath1496)"/></g><g transform="translate(31.628 -104.62)"><g clip-path="url(#clipPath1506)"><g clip-path="url(#clipPath1512)"/></g></g><g transform="translate(31.628 -104.62)"/><g transform="translate(31.628 -104.62)"><g clip-path="url(#clipPath1526)"/></g><g transform="translate(31.628 -104.62)"/><g transform="translate(31.628 -104.62)"><g clip-path="url(#clipPath1540)"/></g><g transform="translate(31.628 -104.62)"><g clip-path="url(#clipPath1550)"><g clip-path="url(#clipPath1556)"/></g></g><g transform="translate(31.628 -104.62)"/><g transform="translate(31.628 -104.62)"><g clip-path="url(#clipPath1572)"/></g><g transform="translate(31.628 -104.62)"><g clip-path="url(#clipPath1586)"><g clip-path="url(#clipPath1592)"/></g></g><g transform="translate(31.628 -104.62)"/><g transform="translate(31.628 -104.62)"/><g transform="translate(31.628 -104.62)"/><g transform="translate(31.628 -104.62)"><g clip-path="url(#clipPath1788)"><g clip-path="url(#clipPath1794)"/></g></g><g transform="translate(31.628 -104.62)"/><g transform="translate(31.628 -104.62)"><g clip-path="url(#clipPath1810)"/></g><g transform="translate(31.628 -104.62)"><g clip-path="url(#clipPath1822)"><g clip-path="url(#clipPath1828)"/></g></g><g transform="translate(31.628 -104.62)"><g clip-path="url(#clipPath1840)"><g clip-path="url(#clipPath1846)"><g clip-path="url(#clipPath1852)"/></g></g></g><g transform="translate(31.628 -104.62)"><g clip-path="url(#clipPath1862)"/></g><g transform="translate(31.628 -104.62)"><g clip-path="url(#clipPath1872)"><g clip-path="url(#clipPath1878)"/></g></g><g transform="translate(31.628 -104.62)"><g clip-path="url(#clipPath1888)"><g clip-path="url(#clipPath1894)"><g clip-path="url(#clipPath1900)"/></g></g></g><g transform="translate(31.628 -104.62)"/><g transform="translate(31.628 -104.62)"><g clip-path="url(#clipPath1962)"/></g><g transform="translate(31.628 -104.62)"><g clip-path="url(#clipPath1972)"><g clip-path="url(#clipPath1978)"/></g></g><g transform="translate(31.628 -104.62)"><g clip-path="url(#clipPath1988)"><g clip-path="url(#clipPath1994)"><g clip-path="url(#clipPath2000)"/></g></g></g><g transform="translate(31.628 -104.62)"/><g transform="translate(31.628 -104.62)"><g clip-path="url(#clipPath2014)"/></g><g transform="translate(31.628 -104.62)"><g clip-path="url(#clipPath2024)"><g clip-path="url(#clipPath2030)"/></g></g><g transform="translate(31.628 -104.62)"><g clip-path="url(#clipPath2040)"><g clip-path="url(#clipPath2046)"><g clip-path="url(#clipPath2052)"/></g></g></g><g transform="translate(31.628 -104.62)"/><g transform="translate(31.628 -104.62)"><g clip-path="url(#clipPath2066)"/></g><g transform="translate(31.628 -104.62)"><g clip-path="url(#clipPath2076)"><g clip-path="url(#clipPath2082)"/></g></g><g transform="translate(31.628 -104.62)"/><g transform="translate(31.628 -104.62)"><g clip-path="url(#clipPath2096)"/></g><g transform="translate(31.628 -104.62)"/><g transform="translate(31.628 -104.62)"><g clip-path="url(#clipPath2110)"/></g><g transform="translate(31.628 -104.62)"><g clip-path="url(#clipPath2120)"><g clip-path="url(#clipPath2126)"/></g></g><g transform="translate(31.628 -104.62)"/><g transform="translate(31.628 -104.62)"><g clip-path="url(#clipPath2142)"/></g><g transform="translate(31.628 -104.62)"><g clip-path="url(#clipPath2156)"><g clip-path="url(#clipPath2162)"/></g></g><g transform="translate(31.628 -104.62)"/><g transform="translate(31.628 -104.62)"/><g transform="translate(31.628 -104.62)"><g clip-path="url(#clipPath2256)"><g clip-path="url(#clipPath2262)"/></g></g><g transform="translate(31.628 -104.62)"/><g transform="translate(31.628 -104.62)"><g clip-path="url(#clipPath2278)"/></g><g transform="translate(31.628 -104.62)"><g clip-path="url(#clipPath2290)"><g clip-path="url(#clipPath2296)"/></g></g><g transform="translate(31.628 -104.62)"><g clip-path="url(#clipPath2308)"><g clip-path="url(#clipPath2314)"><g clip-path="url(#clipPath2320)"/></g></g></g><g transform="translate(31.628 -104.62)"><g clip-path="url(#clipPath2330)"/></g><g transform="translate(31.628 -104.62)"><g clip-path="url(#clipPath2340)"><g clip-path="url(#clipPath2346)"/></g></g><g transform="translate(31.628 -104.62)"/><g transform="translate(31.628 -104.62)"><g clip-path="url(#clipPath2394)"/></g><g transform="translate(31.628 -104.62)"><g clip-path="url(#clipPath2404)"><g clip-path="url(#clipPath2410)"/></g></g><g transform="translate(31.628 -104.62)"><g clip-path="url(#clipPath2420)"><g clip-path="url(#clipPath2426)"><g clip-path="url(#clipPath2432)"/></g></g></g><g transform="translate(31.628 -104.62)"/><g transform="translate(31.628 -104.62)"><g clip-path="url(#clipPath2446)"/></g><g transform="translate(31.628 -104.62)"><g clip-path="url(#clipPath2456)"><g clip-path="url(#clipPath2462)"/></g></g><g transform="translate(31.628 -104.62)"/><g transform="translate(31.628 -104.62)"><g clip-path="url(#clipPath2476)"/></g><g transform="translate(31.628 -104.62)"/><g transform="translate(31.628 -104.62)"><g clip-path="url(#clipPath2490)"/></g><g transform="translate(31.628 -104.62)"><g clip-path="url(#clipPath2500)"><g clip-path="url(#clipPath2506)"/></g></g><g transform="translate(31.628 -104.62)"/><g transform="translate(31.628 -104.62)"><g clip-path="url(#clipPath2522)"/></g><g transform="translate(31.628 -104.62)"><g clip-path="url(#clipPath2536)"><g clip-path="url(#clipPath2542)"/></g></g><g transform="translate(31.628 -104.62)"/><g transform="translate(31.628 -104.62)"/><g transform="translate(-5.3198 -11.351)"><g transform="translate(31.628 -104.62)"><g clip-path="url(#clipPath40)"><g transform="matrix(3.0227 0 0 3.0227 6.0454 625.45)"><path d="m0 0h30v30h-30z" fill="#fff"/></g></g></g><g transform="translate(31.628 -104.62)"><g clip-path="url(#clipPath162)"><g clip-path="url(#clipPath168)"><g clip-path="url(#clipPath174)"><g transform="matrix(3.0227 0 0 3.0227 3.0224 622.42)"><path d="m4.5 26.5h12v-20h12" fill="none" stroke="#000" stroke-linecap="round" stroke-linejoin="round" stroke-miterlimit="10"/></g></g></g></g></g><g transform="translate(31.628 -104.62)"><g clip-path="url(#clipPath354)"><g transform="matrix(3.0227 0 0 3.0227 6.0454 625.45)"><path d="m0 0h30v30h-30z" fill="none" stroke="#000" stroke-miterlimit="2" stroke-width=".64245"/></g><g transform="matrix(3.0227 0 0 3.0227 1744.1 773.56)"><path d="m0 0h115v52h-115z" fill="#fff"/></g></g></g><g transform="translate(31.628 -104.62)"><g clip-path="url(#clipPath504)"><g clip-path="url(#clipPath510)"><g clip-path="url(#clipPath516)"><g clip-path="url(#clipPath522)"><path d="m1792.5 847.61h250.88v3.0227h-250.88z" fill-rule="evenodd"/><path d="m1838.7 826.88v-2.5976h-21.914v2.5976z"/><path d="m1859.9 822.53c0-8.029-3.5894-13.555-8.7375-13.555-6.3288 0-9.0208 6.376-9.0208 13.319 0 6.4705 2.1725 13.791 8.8791 13.791 6.4233 0 8.8792-6.7538 8.8792-13.555zm-3.7784 0.23615c0 7.7457-1.7475 12.28-5.1008 12.28-3.4005 0-5.1008-4.4868-5.1008-12.469s1.7475-12.61 5.0064-12.61c3.495 0 5.1952 4.6285 5.1952 12.799z"/><path d="m1867.9 833.82c0-1.1807-1.0391-2.2198-2.1726-2.2198-1.228 0-2.2198 0.99182-2.2198 2.1726 0 1.228 0.9446 2.1726 2.1726 2.1726 1.1807 0 2.2198-0.99183 2.2198-2.1253z"/><path d="m1886.1 835.52v-0.56676c-2.9755 0-3.7311-0.70844-3.7311-2.4087v-23.473l-0.3779-0.0945-7.0372 3.5422v0.56676l1.0863-0.37784c0.7084-0.28338 1.3696-0.4723 1.7475-0.4723 0.8501 0 1.1807 0.56676 1.1807 1.8892v17.664c0 2.1726-0.8029 2.9755-3.7311 3.1644v0.56676h10.863z"/><path d="m1904.7 818.14h-0.5668c-0.3306 0.56676-0.614 0.70845-1.1807 0.70845-0.3306 0-0.6613-0.0472-1.4169-0.28338-0.9918-0.23615-1.5114-0.37784-2.2198-0.37784-2.881 0-4.723 1.653-4.723 4.2507 0 1.2752 0.7557 3.0227 2.456 5.148 1.5585 1.9364 2.2197 3.2588 2.2197 4.534 0 1.8892-1.1335 3.0227-3.0226 3.0227-2.0309 0-3.3534-1.6058-3.9201-5.337h-0.614l-0.8029 6.2343h0.6612c0.2362-0.61398 0.7085-0.85013 1.1335-0.85013 0.4251 0 0.9918 0.0472 1.7003 0.37784 0.9446 0.33061 1.5113 0.37784 2.1725 0.37784 3.2589 0 5.6676-1.9836 5.6676-5.2425 0-1.5586-0.7084-3.0699-2.6921-5.337-1.5113-1.842-2.1253-2.9755-2.1253-4.0145 0-1.4641 0.9446-2.267 2.3615-2.267 1.8892 0 3.0699 1.3224 3.495 4.5813h0.614z"/><path d="m1939.2 826.88v-2.5976h-10.249v-10.249h-2.5977v10.249h-10.249v2.5976h10.249v10.249h2.5977v-10.249z"/><path d="m1968.4 822.53c0-8.029-3.5894-13.555-8.7375-13.555-6.3288 0-9.0208 6.376-9.0208 13.319 0 6.4705 2.1725 13.791 8.8791 13.791 6.4233 0 8.8792-6.7538 8.8792-13.555zm-3.7784 0.23615c0 7.7457-1.7475 12.28-5.1008 12.28-3.4005 0-5.1008-4.4868-5.1008-12.469s1.7475-12.61 5.0064-12.61c3.495 0 5.1952 4.6285 5.1952 12.799z"/><path d="m1976.5 833.82c0-1.1807-1.0391-2.2198-2.1726-2.2198-1.228 0-2.2198 0.99182-2.2198 2.1726 0 1.228 0.9446 2.1726 2.1726 2.1726 1.1807 0 2.2198-0.99183 2.2198-2.1253z"/><path d="m1997.9 822.53c0-8.029-3.5894-13.555-8.7375-13.555-6.3287 0-9.0208 6.376-9.0208 13.319 0 6.4705 2.1725 13.791 8.8791 13.791 6.4233 0 8.8792-6.7538 8.8792-13.555zm-3.7784 0.23615c0 7.7457-1.7475 12.28-5.1008 12.28-3.4005 0-5.1008-4.4868-5.1008-12.469s1.7475-12.61 5.0064-12.61c3.495 0 5.1952 4.6285 5.1952 12.799z"/><path d="m2001.3 815.5c1.6058-2.9282 3.4006-4.2034 5.8565-4.2034 2.5976 0 4.2507 1.3697 4.2507 4.0145 0 2.4087-1.2752 4.2034-3.2116 5.2897-0.7557 0.4723-1.7948 0.89737-3.3061 1.4169v0.51953c2.267 0 3.1644 0.14169 4.0145 0.42507 2.7393 0.75567 4.109 2.6921 4.109 5.6676 0 3.3533-2.2198 6.0454-5.1008 6.0454-1.1335 0-1.9364-0.18891-3.4006-1.228-1.0862-0.8029-1.7475-1.039-2.4087-1.039-0.8973 0-1.6058 0.61399-1.6058 1.4169 0 1.4169 1.5586 2.267 4.3924 2.267 3.495 0 7.2261-1.1335 9.1153-3.6839 1.1335-1.4641 1.842-3.4005 1.842-5.4786 0-2.0309-0.6613-3.8728-1.7475-5.1008-0.8029-0.85013-1.5114-1.3224-3.2589-2.0781 2.6449-1.5586 3.6367-3.5422 3.6367-5.3842 0-3.2588-2.4559-5.3842-6.0926-5.3842-4.109 0-6.5649 2.5976-7.7457 6.3288z"/><path d="m1806.9 872.55h-0.5667c-0.3306 0.56675-0.614 0.70844-1.1808 0.70844-0.3306 0-0.6612-0.0472-1.4169-0.28338-0.9918-0.23614-1.5113-0.37783-2.2198-0.37783-2.881 0-4.7229 1.653-4.7229 4.2507 0 1.2752 0.7556 3.0227 2.4559 5.148 1.5586 1.9364 2.2198 3.2588 2.2198 4.534 0 1.8892-1.1335 3.0227-3.0227 3.0227-2.0309 0-3.3533-1.6058-3.92-5.337h-0.614l-0.8029 6.2343h0.6612c0.2361-0.61399 0.7084-0.85013 1.1335-0.85013s0.9918 0.0472 1.7003 0.37783c0.9445 0.33061 1.5113 0.37784 2.1725 0.37784 3.2589 0 5.6676-1.9836 5.6676-5.2425 0-1.5586-0.7085-3.0699-2.6921-5.337-1.5114-1.842-2.1253-2.9755-2.1253-4.0145 0-1.4641 0.9445-2.267 2.3614-2.267 1.8892 0 3.07 1.3224 3.495 4.5813h0.614z"/><path d="m1820.5 871.09-0.3779-0.14169c-0.8973 1.5114-1.4641 1.7947-2.5976 1.7947h-6.376l4.4868-4.7702c2.4087-2.5504 3.495-4.6285 3.495-6.7538 0-2.6921-1.9836-4.7702-5.0536-4.7702-3.3533 0-5.1008 2.2198-5.6675 5.3842l0.5667 0.14169c1.0863-2.6449 2.0781-3.5422 4.0145-3.5422 2.3143 0 3.7784 1.3697 3.7784 3.8256 0 2.3142-0.9918 4.3924-3.5422 7.0844l-4.8174 5.148v0.33061h10.627z"/><path d="m1855 881.29v-2.5976h-10.249v-10.249h-2.5976v10.249h-10.249v2.5976h10.249v10.249h2.5976v-10.249z"/><path d="m1884.3 876.94c0-8.029-3.5894-13.555-8.7374-13.555-6.3288 0-9.0209 6.376-9.0209 13.319 0 6.4705 2.1726 13.791 8.8792 13.791 6.4232 0 8.8791-6.7538 8.8791-13.555zm-3.7783 0.23615c0 7.7457-1.7475 12.28-5.1008 12.28-3.4006 0-5.1008-4.4868-5.1008-12.469 0-7.9818 1.7475-12.61 5.0063-12.61 3.495 0 5.1953 4.6285 5.1953 12.799z"/><path d="m1892.4 888.23c0-1.1808-1.039-2.2198-2.1726-2.2198-1.2279 0-2.2197 0.99182-2.2197 2.1726 0 1.228 0.9446 2.1726 2.1725 2.1726 1.1808 0 2.2198-0.99182 2.2198-2.1253z"/><path d="m1913.7 884.55-0.5195-0.23615c-1.3225 2.2198-2.1254 2.6449-3.7784 2.6449h-9.2098l6.4705-6.9428c3.5422-3.6839 5.0536-6.6122 5.0536-9.7293 0-3.8728-2.8338-6.8955-7.2734-6.8955-4.8174 0-7.3678 3.2116-8.1707 7.7929l0.8029 0.18891c1.6058-3.8256 2.9754-5.1008 5.8092-5.1008 3.3061 0 5.4314 1.9836 5.4314 5.5259 0 3.3533-1.4169 6.3288-5.1008 10.249l-6.99 7.4151v0.47229h15.35z"/><path d="m1929.1 872.55h-0.5668c-0.3306 0.56675-0.6139 0.70844-1.1807 0.70844-0.3306 0-0.6612-0.0472-1.4169-0.28338-0.9918-0.23614-1.5113-0.37783-2.2198-0.37783-2.881 0-4.723 1.653-4.723 4.2507 0 1.2752 0.7557 3.0227 2.456 5.148 1.5586 1.9364 2.2198 3.2588 2.2198 4.534 0 1.8892-1.1335 3.0227-3.0227 3.0227-2.0309 0-3.3533-1.6058-3.9201-5.337h-0.614l-0.8029 6.2343h0.6613c0.2361-0.61399 0.7084-0.85013 1.1335-0.85013 0.425 0 0.9918 0.0472 1.7002 0.37783 0.9446 0.33061 1.5114 0.37784 2.1726 0.37784 3.2588 0 5.6676-1.9836 5.6676-5.2425 0-1.5586-0.7085-3.0699-2.6921-5.337-1.5114-1.842-2.1254-2.9755-2.1254-4.0145 0-1.4641 0.9446-2.267 2.3615-2.267 1.8892 0 3.0699 1.3224 3.495 4.5813h0.614z"/><path d="m1963.6 881.29v-2.5976h-10.249v-10.249h-2.5976v10.249h-10.249v2.5976h10.249v10.249h2.5976v-10.249z"/><path d="m1992.9 876.94c0-8.029-3.5895-13.555-8.7375-13.555-6.3288 0-9.0209 6.376-9.0209 13.319 0 6.4705 2.1726 13.791 8.8792 13.791 6.4232 0 8.8792-6.7538 8.8792-13.555zm-3.7784 0.23615c0 7.7457-1.7475 12.28-5.1008 12.28-3.4005 0-5.1008-4.4868-5.1008-12.469 0-7.9818 1.7475-12.61 5.0063-12.61 3.495 0 5.1953 4.6285 5.1953 12.799z"/><path d="m2001 888.23c0-1.1808-1.039-2.2198-2.1725-2.2198-1.228 0-2.2198 0.99182-2.2198 2.1726 0 1.228 0.9446 2.1726 2.1726 2.1726 1.1807 0 2.2197-0.99182 2.2197-2.1253z"/><path d="m2022.4 876.94c0-8.029-3.5895-13.555-8.7375-13.555-6.3288 0-9.0209 6.376-9.0209 13.319 0 6.4705 2.1726 13.791 8.8792 13.791 6.4232 0 8.8792-6.7538 8.8792-13.555zm-3.7784 0.23615c0 7.7457-1.7475 12.28-5.1008 12.28-3.4005 0-5.1008-4.4868-5.1008-12.469 0-7.9818 1.7475-12.61 5.0064-12.61 3.4949 0 5.1952 4.6285 5.1952 12.799z"/><path d="m2038.8 889.93v-0.56675c-2.9755 0-3.7311-0.70845-3.7311-2.4087v-23.473l-0.3779-0.0945-7.0372 3.5422v0.56675l1.0863-0.37783c0.7084-0.28338 1.3697-0.4723 1.7475-0.4723 0.8501 0 1.1807 0.56675 1.1807 1.8892v17.664c0 2.1726-0.8029 2.9755-3.7311 3.1644v0.56675h10.863z"/></g></g></g></g></g><g transform="translate(31.628 -104.62)"><g clip-path="url(#clipPath842)"><g transform="matrix(3.0227 0 0 3.0227 1744.1 773.56)"><path d="m0 0h115v52h-115z" fill="none" stroke="#000" stroke-miterlimit="2" stroke-width=".64245"/></g><g transform="matrix(3.0227 0 0 3.0227 2197.5 791.69)"><path d="m0 0h40v40h-40z" fill="#fff"/></g></g></g><g transform="translate(31.628 -104.62)"><g clip-path="url(#clipPath970)"><g clip-path="url(#clipPath976)"><g clip-path="url(#clipPath982)"><g transform="matrix(3.0227 0 0 3.0227 2194.5 788.67)"><path d="m10.5 21.5h-7" fill="none" stroke="#000" stroke-linecap="round" stroke-linejoin="round" stroke-miterlimit="10"/></g><g transform="matrix(3.0227 0 0 3.0227 2194.5 788.67)"><path d="m3.5 21.5c3 0 3-17 7-17 5 0 5 34 9 34 7 0 7-25 16-24" fill="none" stroke="#ababab" stroke-linecap="round" stroke-linejoin="round" stroke-miterlimit="10"/></g><g transform="matrix(3.0227 0 0 3.0227 2194.5 788.67)"><path d="m10.5 21.5c3 0 3-17 8-17 5 0 5 34 10 34s5-15 10-15" fill="none" stroke="#000" stroke-linecap="round" stroke-linejoin="round" stroke-miterlimit="10"/></g><g transform="matrix(3.0227 0 0 3.0227 2194.5 788.67)"><path d="m15.5 19.5h4" fill="none" stroke="#ababab" stroke-linecap="round" stroke-linejoin="round" stroke-miterlimit="10"/></g><path d="m2253.4 841.57v12.091l9.0681-6.0454z" fill="#e4e4e4"/><g transform="matrix(3.0227 0 0 3.0227 2194.5 788.67)"><path d="m19.5 17.5v4l3-2z" fill="none" stroke="#ababab" stroke-linecap="round" stroke-linejoin="round" stroke-miterlimit="10"/></g><g transform="matrix(3.0227 0 0 3.0227 2194.5 788.67)"><path d="m16.5 26.5h4" fill="none" stroke="#ababab" stroke-linecap="round" stroke-linejoin="round" stroke-miterlimit="10"/></g><path d="m2256.4 862.73v12.091l9.0681-6.0454z" fill="#e4e4e4"/><g transform="matrix(3.0227 0 0 3.0227 2194.5 788.67)"><path d="m20.5 24.5v4l3-2z" fill="none" stroke="#ababab" stroke-linecap="round" stroke-linejoin="round" stroke-miterlimit="10"/></g></g></g></g></g><g transform="translate(31.628 -104.62)"><g clip-path="url(#clipPath1194)"><g transform="matrix(3.0227 0 0 3.0227 2197.5 791.69)"><path d="m0 0h40v40h-40z" fill="none" stroke="#000" stroke-miterlimit="2" stroke-width=".64245"/></g><g transform="matrix(3.0227 0 0 3.0227 1381.4 806.81)"><path d="m0 0h30v30h-30z" fill="#fff"/></g></g></g><g transform="translate(31.628 -104.62)"><g clip-path="url(#clipPath1322)"><g clip-path="url(#clipPath1328)"><g clip-path="url(#clipPath1334)"><g transform="matrix(3.0227 0 0 3.0227 1378.4 803.78)"><path d="m16.5 26.5h3l2-17h3" fill="none" stroke="#000" stroke-linecap="round" stroke-linejoin="round" stroke-miterlimit="10"/></g></g></g></g></g><g transform="translate(31.628 -104.62)"><g clip-path="url(#clipPath1348)"><g clip-path="url(#clipPath1354)"><g clip-path="url(#clipPath1360)"><g clip-path="url(#clipPath1366)"><path d="m1402.6 850.86h17.985v2.5693h-17.985z" fill-rule="evenodd"/><path d="m1415.8 840.59v-0.48174c-2.5292 0-3.1715-0.60218-3.1715-2.0474v-19.952l-0.3212-0.0803-5.9816 3.0109v0.48174l0.9233-0.32116c0.6022-0.24087 1.1642-0.40145 1.4854-0.40145 0.7226 0 1.0036 0.48174 1.0036 1.6058v15.014c0 1.8467-0.6824 2.5291-3.1714 2.6897v0.48174h9.2334z"/><path d="m1416.1 866.92h-0.4818c-0.281 0.48174-0.5219 0.60218-1.0036 0.60218-0.281 0-0.562-0.0401-1.2044-0.24087-0.843-0.20073-1.2846-0.32116-1.8868-0.32116-2.4488 0-4.0145 1.4051-4.0145 3.6131 0 1.0839 0.6423 2.5693 2.0875 4.3758 1.3248 1.646 1.8869 2.77 1.8869 3.8539 0 1.6058-0.9635 2.5693-2.5693 2.5693-1.7263 0-2.8503-1.3649-3.3321-4.5364h-0.5219l-0.6824 5.2992h0.562c0.2007-0.52189 0.6022-0.72262 0.9635-0.72262s0.843 0.0401 1.4452 0.32117c0.8029 0.28101 1.2847 0.32116 1.8467 0.32116 2.77 0 4.8174-1.6861 4.8174-4.4561 0-1.3248-0.6022-2.6094-2.2883-4.5364-1.2846-1.5657-1.8065-2.5292-1.8065-3.4123 0-1.2445 0.8029-1.927 2.0073-1.927 1.6058 0 2.6094 1.1241 2.9707 3.8941h0.5219z"/></g></g></g></g></g><g transform="translate(31.628 -104.62)"><g clip-path="url(#clipPath1606)"><g transform="matrix(3.0227 0 0 3.0227 1381.4 806.81)"><path d="m0 0h30v30h-30z" fill="none" stroke="#000" stroke-miterlimit="2" stroke-width=".64245"/></g><g transform="matrix(3.0227 0 0 3.0227 1124.4 767.51)"><path d="m0 0h70v56h-70z" fill="#fff"/></g></g></g><g transform="translate(31.628 -104.62)"><g clip-path="url(#clipPath1634)"><g clip-path="url(#clipPath1640)"><g transform="matrix(3.0227 0 0 3.0227 1133.5 852.15)"><g transform="translate(0,3)" aria-label="in"><path d="m0.59766-5.5327v-0.90967h0.79102v0.90967zm0 5.5327v-4.667h0.79102v4.667z"/><path d="m2.5776 0v-4.667h0.71191v0.66357q0.51416-0.76904 1.4854-0.76904 0.42188 0 0.77344 0.15381 0.35596 0.14941 0.53174 0.39551 0.17578 0.24609 0.24609 0.58447 0.043945 0.21973 0.043945 0.76904v2.8696h-0.79102v-2.8389q0-0.4834-0.092285-0.7207-0.092285-0.2417-0.32959-0.38232-0.23291-0.14502-0.54932-0.14502-0.50537 0-0.87451 0.3208-0.36475 0.3208-0.36475 1.2173v2.5488z"/></g></g><g transform="matrix(3.0227 0 0 3.0227 1327 852.15)"><g transform="translate(-12.5,3)" aria-label="out"><path d="m0.29883-2.3335q0-1.2964 0.7207-1.9204 0.60205-0.51855 1.4678-0.51855 0.9624 0 1.5732 0.63281 0.61084 0.62842 0.61084 1.7402 0 0.90088-0.27246 1.4194-0.26807 0.51416-0.78662 0.7998-0.51416 0.28564-1.125 0.28564-0.97998 0-1.5864-0.62842-0.60205-0.62842-0.60205-1.8105zm0.81299 0q0 0.89648 0.39111 1.3447 0.39111 0.44385 0.98438 0.44385 0.58887 0 0.97998-0.44824 0.39111-0.44824 0.39111-1.3667 0-0.86572-0.39551-1.3096-0.39111-0.44824-0.97559-0.44824-0.59326 0-0.98438 0.44385-0.39111 0.44385-0.39111 1.3403z"/><path d="m8.6519 0v-0.68555q-0.54492 0.79102-1.481 0.79102-0.41309 0-0.77344-0.1582-0.35596-0.1582-0.53174-0.39551-0.17139-0.2417-0.2417-0.58887-0.04834-0.23291-0.04834-0.73828v-2.8916h0.79102v2.5884q0 0.61963 0.04834 0.83496 0.074707 0.31201 0.31641 0.49219 0.2417 0.17578 0.59766 0.17578 0.35596 0 0.66797-0.18018 0.31201-0.18457 0.43945-0.49658 0.13184-0.31641 0.13184-0.91406v-2.5005h0.79102v4.667z"/><path d="m12.32-0.70752 0.11426 0.69873q-0.33398 0.070312-0.59766 0.070312-0.43066 0-0.66797-0.13623-0.2373-0.13623-0.33398-0.35596-0.09668-0.22412-0.09668-0.93604v-2.6851h-0.58008v-0.61523h0.58008v-1.1558l0.78662-0.47461v1.6304h0.79541v0.61523h-0.79541v2.729q0 0.33838 0.03955 0.43506 0.04394 0.09668 0.13623 0.15381 0.09668 0.057129 0.27246 0.057129 0.13184 0 0.34717-0.030762z"/></g></g><g transform="matrix(3.0227 0 0 3.0227 -219.15 -22.924)"><path d="m458 303h37" fill="none" stroke="#000" stroke-miterlimit="2" stroke-width=".33083"/></g><g transform="matrix(3.0227 0 0 3.0227 -219.15 -22.924)"><path d="m464 303 6-27" fill="none" stroke="#000" stroke-miterlimit="2" stroke-width=".33083"/></g><g transform="matrix(3.0227 0 0 3.0227 -219.15 -22.924)"><path d="m470 276 6 27" fill="none" stroke="#000" stroke-miterlimit="2" stroke-width=".33083"/></g><g transform="matrix(3.0227 0 0 3.0227 -219.15 -22.924)"><path d="m470 303 6-27" fill="none" stroke="#000" stroke-miterlimit="2" stroke-width=".33083"/></g><g transform="matrix(3.0227 0 0 3.0227 -219.15 -22.924)"><path d="m476 276 7 27" fill="none" stroke="#000" stroke-miterlimit="2" stroke-width=".33083"/></g><g transform="matrix(3.0227 0 0 3.0227 -219.15 -22.924)"><path d="m476 303 7-27" fill="none" stroke="#000" stroke-miterlimit="2" stroke-width=".33083"/></g><g transform="matrix(3.0227 0 0 3.0227 -219.15 -22.924)"><path d="m483 276 6 27" fill="none" stroke="#000" stroke-miterlimit="2" stroke-width=".33083"/></g></g></g></g><g transform="translate(31.628 -104.62)"><g clip-path="url(#clipPath1698)"><g transform="matrix(3.0227 0 0 3.0227 1124.4 767.51)"><path d="m0 0h70v56h-70z" fill="none" stroke="#000" stroke-miterlimit="2" stroke-width="1.2849"/></g><path d="m278.09 670.79c0 16.694-13.533 30.227-30.227 30.227-16.694 0-30.227-13.533-30.227-30.227 0-16.694 13.533-30.227 30.227-30.227 16.694 0 30.227 13.533 30.227 30.227z" fill="#fff"/></g></g><g transform="translate(31.628 -104.62)"><g clip-path="url(#clipPath1724)"><g clip-path="url(#clipPath1730)"><g transform="matrix(3.0227 0 0 3.0227 232.75 670.79)"><g transform="translate(-2.9062 3.5)" aria-label="+"><path d="m2.5049-1.1572v-1.9629h-1.9482v-0.82031h1.9482v-1.9482h0.83008v1.9482h1.9482v0.82031h-1.9482v1.9629z"/></g></g><g transform="matrix(3.0227 0 0 3.0227 247.86 685.9)"><g transform="translate(-2.9062 3.5)" aria-label="−"><path d="m5.2832-3.1201h-4.7266v-0.82031h4.7266z"/></g></g></g></g></g><g transform="translate(31.628 -104.62)"><g clip-path="url(#clipPath1760)"><g transform="matrix(3.0227 0 0 3.0227 217.63 640.56)"><path d="m20 10c0 5.5228-4.4772 10-10 10-5.5228 0-10-4.4772-10-10 0-5.5228 4.4772-10 10-10 5.5228 0 10 4.4772 10 10z" fill="none" stroke="#000" stroke-miterlimit="2" stroke-width=".64245"/></g><g transform="matrix(3.0227 0 0 3.0227 399 852.15)"><path d="m0 0h30v30h-30z" fill="#fff"/></g></g></g><g transform="translate(31.628 -104.62)"><g clip-path="url(#clipPath1910)"><g clip-path="url(#clipPath1916)"><g clip-path="url(#clipPath1922)"><g clip-path="url(#clipPath1928)"><path d="m427.11 897.19h33.854v2.1159h-33.854z" fill-rule="evenodd"/><path d="m445.69 888.72-8.4966-18.547h-0.52898l-8.2321 18.547zm-4.1656-2.5457h-10.679l5.3558-12.1z"/><path d="m459.64 885.45c-1.4216 1.8514-1.8514 2.2151-2.2812 2.2151-0.19836 0-0.3306-0.1653-0.3306-0.46285 0-0.33061 0.39673-1.62 0.52897-2.149l2.182-8.1991h-2.0498c-1.3224 3.6697-1.7192 4.7277-3.0085 6.6783-1.7192 2.5787-2.9755 4.0334-3.9012 4.0334-0.42979 0-0.56203-0.26449-0.56203-0.69428 0-0.0992 0.0661-0.36367 0.0992-0.42979l2.4465-9.7529-0.13225-0.0992c-1.5538 0.36367-2.5457 0.56204-4.1326 0.7604v0.36367c1.0579 0 1.1571 0.0331 1.3886 0.1653 0.16531 0.0992 0.29755 0.29755 0.29755 0.49592 0 0.23142-0.16531 0.9257-0.36367 1.8514l-0.99182 3.835c-0.49591 1.9836-0.72734 2.9755-0.72734 3.5044 0 1.0249 0.49591 1.4547 1.4547 1.4547 1.9506 0 3.3391-1.4547 6.5791-6.7775-0.89264 2.9424-1.2563 4.7938-1.2563 5.422 0 0.82652 0.49591 1.2894 1.3224 1.2894 1.3224 0 2.0167-0.52897 3.802-3.273l-0.36367-0.23142z"/><path d="m447.44 922.58-8.4966-18.547h-0.52897l-8.2321 18.547zm-4.1656-2.5457h-10.679l5.3558-12.1z"/><path d="m456.8 910.81h-2.182l0.7604-2.8432c0.0331-0.0331 0.0331-0.19837 0.0331-0.19837 0-0.13224-0.0992-0.19836-0.26449-0.19836-0.0992 0-0.26448 0.0661-0.36367 0.23143-0.99182 1.4877-2.7771 2.8432-3.6697 3.0416-0.66122 0.13224-0.89264 0.36367-0.89264 0.69427v0.16531h2.0828l-2.149 8.1329c-0.23143 0.85958-0.42979 1.7192-0.42979 2.0167 0 0.69428 0.49591 1.0249 1.2563 1.0249 1.4216 0 2.2812-0.79345 3.9342-3.3391l-0.36367-0.16531c-1.3555 1.7192-1.7853 2.149-2.2151 2.149-0.26449 0-0.42979-0.0661-0.42979-0.42979 0-0.0661 0.0331-0.26448 0.0661-0.39673l2.3804-8.9925h2.3142l0.13224-0.89264z"/></g></g></g></g></g><g transform="translate(31.628 -104.62)"><g clip-path="url(#clipPath2176)"><g transform="matrix(3.0227 0 0 3.0227 399 852.15)"><path d="m0 0h30v30h-30z" fill="none" stroke="#000" stroke-miterlimit="2" stroke-width=".64245"/></g><g transform="matrix(3.0227 0 0 3.0227 988.42 764.49)"><path d="m0 0h5v58h-5z" fill="#fff"/></g></g></g><g transform="translate(31.628 -104.62)"><g clip-path="url(#clipPath2204)"><g clip-path="url(#clipPath2210)"><path d="m988.42 764.49h15.113v175.32h-15.113z" fill-rule="evenodd"/></g></g></g><g transform="translate(31.628 -104.62)"><g clip-path="url(#clipPath2228)"><g transform="matrix(3.0227 0 0 3.0227 988.42 764.49)"><path d="m0 0h5v58h-5z" fill="none" stroke="#000" stroke-miterlimit="2" stroke-width=".64245"/></g><g transform="matrix(3.0227 0 0 3.0227 625.7 852.15)"><path d="m0 0h30v30h-30z" fill="#fff"/></g></g></g><g transform="translate(31.628 -104.62)"><g clip-path="url(#clipPath2356)"><g clip-path="url(#clipPath2362)"><g clip-path="url(#clipPath2368)"><g transform="matrix(3.0227 0 0 3.0227 622.68 849.12)"><path d="m3.5 16.5h26" fill="none" stroke="#ababab" stroke-linecap="round" stroke-linejoin="round" stroke-miterlimit="10"/></g><g transform="matrix(3.0227 0 0 3.0227 622.68 849.12)"><path d="m16.5 3.5v26" fill="none" stroke="#ababab" stroke-linecap="round" stroke-linejoin="round" stroke-miterlimit="10"/></g><g transform="matrix(3.0227 0 0 3.0227 622.68 849.12)"><path d="m4.5 25.5h7l10-19h7" fill="none" stroke="#000" stroke-linecap="round" stroke-linejoin="round" stroke-miterlimit="10"/></g></g></g></g></g><g transform="translate(31.628 -104.62)"><g clip-path="url(#clipPath2556)"><g transform="matrix(3.0227 0 0 3.0227 625.7 852.15)"><path d="m0 0h30v30h-30z" fill="none" stroke="#000" stroke-miterlimit="2" stroke-width=".64245"/></g><path d="m217.63 670.79-24.182-12.091v24.182z"/><g transform="matrix(3.0227 0 0 3.0227 -220.66 -24.435)"><path d="m104.93 230.24h32.03" fill="none" stroke="#000" stroke-miterlimit="2" stroke-width=".33083"/></g><path d="m2197.5 852.15-24.182-12.091v24.182z"/><g transform="matrix(3.0227 0 0 3.0227 -220.66 -24.435)"><path d="m764.93 290.12h27.068" fill="none" stroke="#000" stroke-miterlimit="2" stroke-width=".33083"/></g><path d="m247.86 701.01-12.091 24.182h24.182z"/><g transform="matrix(3.0227 0 0 3.0227 -220.66 -24.435)"><path d="m840.03 290.12h23.82v61.865h-708.97v-103.82" fill="none" stroke="#000" stroke-miterlimit="2" stroke-width=".33083"/></g><g transform="matrix(3.0227 0 0 3.0227 -220.66 -24.435)"><path d="m164.81 230.24h14.226v44.993" fill="none" stroke="#000" stroke-miterlimit="2" stroke-width=".33083"/></g><path d="m399 897.49-24.182-12.091v24.182z"/><g transform="matrix(3.0227 0 0 3.0227 -220.66 -24.435)"><path d="m179.03 275.23v29.775h17.805" fill="none" stroke="#000" stroke-miterlimit="2" stroke-width=".33083"/></g><path d="m988.42 806.81-24.182-12.091v24.182z"/><g transform="matrix(3.0227 0 0 3.0227 -220.66 -24.435)"><path d="m179.03 275.23h212.99" fill="none" stroke="#000" stroke-miterlimit="2" stroke-width=".33083"/></g><path d="m326.75 807.5c0 3.4518-2.7982 6.25-6.25 6.25s-6.25-2.7982-6.25-6.25 2.7982-6.25 6.25-6.25 6.25 2.7982 6.25 6.25z" fill-rule="evenodd"/><path d="m1381.4 852.15-24.182-12.091v24.182z"/><g transform="matrix(3.0227 0 0 3.0227 -220.66 -24.435)"><path d="m514.82 290.12h7.2182" fill="none" stroke="#000" stroke-miterlimit="2" stroke-width=".33083"/></g><path d="m1124.4 852.15-24.182-12.091v24.182z"/><g transform="matrix(3.0227 0 0 3.0227 -220.66 -24.435)"><path d="m404.99 290.12h32.03" fill="none" stroke="#000" stroke-miterlimit="2" stroke-width=".33083"/></g><path d="m625.7 897.49-24.182-12.091v24.182z"/><g transform="matrix(3.0227 0 0 3.0227 -220.66 -24.435)"><path d="m234.94 305h36.993" fill="none" stroke="#000" stroke-miterlimit="2" stroke-width=".33083"/></g><path d="m988.42 897.49-24.182-12.091v24.182z"/><g transform="matrix(3.0227 0 0 3.0227 -220.66 -24.435)"><path d="m310.04 305h81.986" fill="none" stroke="#000" stroke-miterlimit="2" stroke-width=".33083"/></g><path d="m1744.1 852.15-24.182-12.091v24.182z"/><g transform="matrix(3.0227 0 0 3.0227 -220.66 -24.435)"><path d="m559.82 290.12h81.986" fill="none" stroke="#000" stroke-miterlimit="2" stroke-width=".33083"/></g></g></g></g><g transform="translate(31.628 -104.62)"><g clip-path="url(#clipPath2710)"/></g><g transform="translate(31.628 -104.62)"/><g transform="translate(31.628 -104.62)"><g clip-path="url(#clipPath2724)"/></g><g transform="translate(31.628 -104.62)"/></g></g></svg>
